<svg xmlns="http://www.w3.org/2000/svg" width="32" height="32" viewBox="0 0 32 32">
  <g id="bed_occupancy" transform="translate(347 -122)">
    <rect id="Rectangle_3789" data-name="Rectangle 3789" width="32" height="32" transform="translate(-347 122)" fill="#fff"/>
    <g id="Group_15486" data-name="Group 15486" transform="translate(-343 135)">
      <rect id="Rectangle_2491" data-name="Rectangle 2491" width="0.663" height="3.211" transform="translate(0 12.93)"/>
      <rect id="Rectangle_2492" data-name="Rectangle 2492" width="0.663" height="3.211" transform="translate(23.871 12.93)"/>
      <path id="Path_2928" data-name="Path 2928" d="M126.7,495.246H102.826a.332.332,0,0,1-.332-.332v-2.408a1.59,1.59,0,0,1,1.588-1.588H125.44a1.59,1.59,0,0,1,1.588,1.588v2.408A.332.332,0,0,1,126.7,495.246Zm-23.539-.663h23.207v-2.076a.926.926,0,0,0-.925-.924H104.082a.925.925,0,0,0-.924.924Z" transform="translate(-102.494 -484.113)"/>
      <path id="Path_2929" data-name="Path 2929" d="M128.652,478.423H108.969a.332.332,0,0,1-.331-.332v-5.549a1.59,1.59,0,0,1,1.588-1.588H127.4a1.59,1.59,0,0,1,1.588,1.588v5.549A.332.332,0,0,1,128.652,478.423ZM109.3,477.76H128.32v-5.217a.925.925,0,0,0-.924-.924h-17.17a.925.925,0,0,0-.924.924Z" transform="translate(-106.544 -470.955)"/>
      <path id="Path_2930" data-name="Path 2930" d="M121.059,484.617H114.5a.332.332,0,0,1-.331-.332v-2.937a1,1,0,0,1,1-1h5.229a1,1,0,0,1,1,1v2.937A.332.332,0,0,1,121.059,484.617Zm-6.228-.664h5.9v-2.605a.334.334,0,0,0-.333-.333h-5.229a.334.334,0,0,0-.333.333Z" transform="translate(-110.189 -477.149)"/>
      <path id="Path_2931" data-name="Path 2931" d="M148.5,484.617h-6.559a.332.332,0,0,1-.332-.332v-2.937a1,1,0,0,1,1-1h5.229a1,1,0,0,1,1,1v2.937A.332.332,0,0,1,148.5,484.617Zm-6.228-.664h5.9v-2.605a.334.334,0,0,0-.333-.333H142.6a.334.334,0,0,0-.333.333Z" transform="translate(-128.274 -477.149)"/>
      <path id="Path_2932" data-name="Path 2932" d="M126.7,504.46H102.826a.332.332,0,0,1-.332-.331V502a.332.332,0,0,1,.332-.332H126.7a.332.332,0,0,1,.332.332v2.129A.332.332,0,0,1,126.7,504.46Zm-23.539-.663h23.207v-1.466H103.158Z" transform="translate(-102.494 -491.199)"/>
    </g>
  </g>
</svg>
