<?xml version="1.0" ?><svg style="enable-background:new 0 0 24 24;" version="1.1" viewBox="0 0 24 24" xml:space="preserve" xmlns="http://www.w3.org/2000/svg" xmlns:xlink="http://www.w3.org/1999/xlink"><style type="text/css">
	.st0{opacity:0.2;fill:none;stroke:#000000;stroke-width:5.000000e-02;stroke-miterlimit:10;}
</style><g id="Layer_Grid"/><g id="Layer_2"><path d="M19.2,13.4L16.5,17h-1.9l-3.1-6.3l5-2.6C16.7,8,16.9,7.8,17,7.5C17,7.3,17,7,16.9,6.7c-0.1-0.1-0.2-0.3-0.2-0.4   C15.2,4.3,12.9,3,10.5,3C9.6,3,8.8,3.1,8,3.4C7.5,3.6,7.2,3.8,6.8,4C6.7,4,6.7,4.1,6.6,4.1C6,4.5,5.4,5,4.9,5.5   C3.7,6.9,3,8.7,3,10.6c0,1,0.2,2,0.6,2.9c0.1,0.3,0.3,0.5,0.6,0.6c0.1,0,0.2,0.1,0.3,0.1c0.2,0,0.3,0,0.5-0.1l4.8-2.4l2.7,5.4H6   c-0.6,0-1,0.4-1,1c0,0.3,0.2,0.6,0.5,0.8l-0.4,0.8c-0.2,0.5,0,1.1,0.5,1.3C5.7,21,5.9,21,6,21c0.4,0,0.7-0.2,0.9-0.6L7.6,19h7.8   l0.7,1.4c0.2,0.4,0.5,0.6,0.9,0.6c0.1,0,0.3,0,0.4-0.1c0.5-0.2,0.7-0.8,0.4-1.3l-0.4-0.7c0.1-0.1,0.2-0.1,0.3-0.2l3-4   c0.3-0.4,0.2-1.1-0.2-1.4C20.2,12.9,19.5,13,19.2,13.4z M5.1,11.7C5,11.4,5,11,5,10.6c0-0.9,0.2-1.8,0.6-2.5C5.7,9,5.9,10,6.5,11   L5.1,11.7z M14.5,6.9l-1.2,0.6C12.8,6.4,12,5.6,11.1,5C12.4,5.2,13.6,5.8,14.5,6.9z M8.2,10.1C7.3,8.5,7.6,6.8,7.9,6   c1,0.2,2.9,0.7,3.7,2.4L8.2,10.1z"/></g></svg>