<?xml version="1.0" encoding="iso-8859-1"?>
<!-- Generator: Adobe Illustrator 19.1.0, SVG Export Plug-In . SVG Version: 6.00 Build 0)  -->
<svg version="1.1" id="Capa_1" xmlns="http://www.w3.org/2000/svg" xmlns:xlink="http://www.w3.org/1999/xlink" x="0px" y="0px"
	 viewBox="0 0 62.575 62.575" style="enable-background:new 0 0 62.575 62.575;" xml:space="preserve">
<g>
	<g>
		<g id="group-9svg">
			<path id="path-1_29_" d="M11.002,29.29c-0.828,0-1.5-0.671-1.5-1.5v-23c0-0.828,0.672-1.5,1.5-1.5s1.5,0.672,1.5,1.5v23
				C12.502,28.619,11.83,29.29,11.002,29.29z"/>
			<path id="path-2_29_" d="M19.661,56.781c-1.704,0-3.228-1.082-3.794-2.691c-0.016-0.047-0.031-0.095-0.043-0.143L9.926,29.682
				C4.12,28,0,22.591,0,16.471C0,10.019,4.558,4.359,10.837,3.012l5.626-1.525c0.615-0.162,1.307-0.291,1.973-0.121L38.552,6.32
				l5.677-1.437c0.535-0.131,1.279-0.196,1.8-0.196c3.509,0,6.473,2.924,6.473,6.656v8.477c0,1.788-0.844,3.61-1.986,4.847
				c-1.173,1.268-2.873,2.123-4.594,2.123h-0.054c-0.531,0-1.098-0.224-1.632-0.358l-5.187-1.465l-16.188,4.882
				c-0.441,0.121-0.63,0.39-0.704,0.552c-0.074,0.162-0.173,0.48,0.006,0.855c0.082,0.174,0.13,0.357,0.142,0.549l1.307,21.449
				c0.009,0.147-0.004,0.294-0.037,0.437C23.143,55.511,21.534,56.781,19.661,56.781z M18.719,53.15
				c0.157,0.38,0.529,0.631,0.942,0.631c0.417,0,0.782-0.247,0.941-0.619l-1.277-20.923c-0.384-1.005-0.35-2.12,0.102-3.107
				c0.497-1.086,1.443-1.889,2.595-2.204l16.55-5.034c0.27-0.082,0.554-0.087,0.825-0.014l5.565,1.492
				c0.271,0.067,0.566,0.105,0.852,0.105h0.001c0.875,0,1.9-0.356,2.497-1.003c0.629-0.681,1.19-1.624,1.19-2.654v-8.477
				c0-2.4-2.115-4.09-4.336-3.549L39.031,9.32c-0.238,0.061-0.541,0.062-0.779,0.003L17.73,4.276
				c-0.055,0.001-0.257,0.051-0.409,0.091L11.55,5.926c-4.983,1.072-8.547,5.498-8.547,10.545c0,5.037,3.567,9.457,8.483,10.512
				c0.564,0.121,1.006,0.553,1.143,1.112L18.719,53.15z"/>
			<path id="path-3_29_" d="M39.002,24.29c-0.828,0-1.5-0.671-1.5-1.5v-15c0-0.828,0.672-1.5,1.5-1.5s1.5,0.672,1.5,1.5v15
				C40.502,23.619,39.83,24.29,39.002,24.29z"/>
			<path id="path-4_27_" d="M61.075,16.79h-7c-0.828,0-1.5-0.671-1.5-1.5c0-0.828,0.672-1.5,1.5-1.5h7c0.828,0,1.5,0.672,1.5,1.5
				C62.575,16.119,61.903,16.79,61.075,16.79z"/>
			<path id="path-5_27_" d="M61.075,23.79h-7c-0.828,0-1.5-0.671-1.5-1.5c0-0.828,0.672-1.5,1.5-1.5h7c0.828,0,1.5,0.672,1.5,1.5
				C62.575,23.119,61.903,23.79,61.075,23.79z"/>
			<path id="path-6_23_" d="M61.075,10.79h-7c-0.828,0-1.5-0.671-1.5-1.5c0-0.828,0.672-1.5,1.5-1.5h7c0.828,0,1.5,0.672,1.5,1.5
				C62.575,10.119,61.903,10.79,61.075,10.79z"/>
			<path id="path-7_19_" d="M57.002,61.29c-0.828,0-1.5-0.671-1.5-1.5v-0.124c0-2.397-2.154-4.876-5.046-4.876H39.205
				c-2.076,0-4.108-0.887-5.722-2.498c-1.527-1.525-3.904-1.211-5.603-0.217l-5.6,3.921c-0.676,0.475-1.613,0.311-2.089-0.368
				c-0.475-0.679-0.31-1.614,0.369-2.09l5.647-3.954c0.03-0.021,0.061-0.04,0.092-0.059c3.242-1.933,6.982-1.675,9.304,0.644
				c1.047,1.046,2.327,1.621,3.602,1.621h11.251c4.77,0,8.046,4.005,8.046,7.876v0.124C58.502,60.619,57.83,61.29,57.002,61.29z"/>
		</g>
	</g>
	<g>
	</g>
	<g>
	</g>
	<g>
	</g>
	<g>
	</g>
	<g>
	</g>
	<g>
	</g>
	<g>
	</g>
	<g>
	</g>
	<g>
	</g>
	<g>
	</g>
	<g>
	</g>
	<g>
	</g>
	<g>
	</g>
	<g>
	</g>
	<g>
	</g>
</g>
<g>
</g>
<g>
</g>
<g>
</g>
<g>
</g>
<g>
</g>
<g>
</g>
<g>
</g>
<g>
</g>
<g>
</g>
<g>
</g>
<g>
</g>
<g>
</g>
<g>
</g>
<g>
</g>
<g>
</g>
</svg>
