<?xml version="1.0" ?><svg viewBox="0 0 32 32" xmlns="http://www.w3.org/2000/svg"><title/><g data-name="resize, navigation, full, size, move, editing, maximize" id="resize_navigation_full_size_move_editing_maximize"><path d="M29,2H3A1,1,0,0,0,2,3V29a1,1,0,0,0,1,1H29a1,1,0,0,0,1-1V3A1,1,0,0,0,29,2ZM28,28H4V4H28Z"/><path d="M7,26h5a1,1,0,0,0,0-2H9.41L16,17.41,22.59,24H20a1,1,0,0,0,0,2h5a1,1,0,0,0,1-1V20a1,1,0,0,0-2,0v2.59L17.41,16,24,9.41V12a1,1,0,0,0,2,0V7a1,1,0,0,0-1-1H20a1,1,0,0,0,0,2h2.59L16,14.59,9.41,8H12a1,1,0,0,0,0-2H7A1,1,0,0,0,6,7v5a1,1,0,0,0,2,0V9.41L14.59,16,8,22.59V20a1,1,0,0,0-2,0v5A1,1,0,0,0,7,26Z"/></g></svg>