<?xml version="1.0" ?><svg viewBox="0 0 32 32" xmlns="http://www.w3.org/2000/svg"><title/><g id="upVolume"><path d="M11.89,27.45a3.49,3.49,0,0,1-1.59-.39l-.2-.13L5.51,23H3.44A3.25,3.25,0,0,1,0,20V14a3.25,3.25,0,0,1,3.44-3H5.51L10.3,6.94A3.29,3.29,0,0,1,13.56,7,2.92,2.92,0,0,1,15,9.5v15A2.92,2.92,0,0,1,13.56,27,3.22,3.22,0,0,1,11.89,27.45Zm-.59-2.13a1.31,1.31,0,0,0,1.22,0A1,1,0,0,0,13,24.5V9.5a.94.94,0,0,0-.48-.78,1.31,1.31,0,0,0-1.22,0L6.25,13H3.44C2.67,13,2,13.47,2,14v6c0,.53.67,1,1.44,1H6.25Z"/><path d="M19.09,26a2.66,2.66,0,0,1-2.23-1.2,2.63,2.63,0,0,1-.39-2,2.7,2.7,0,0,1,1-1.64c.24-.25,1-1.24,1-3.61,0-3.4-1.33-4.9-1.34-4.91A2.67,2.67,0,0,1,21,8.91c.29.3,2.87,3,2.87,8.65s-2.72,7.61-3.26,8A2.67,2.67,0,0,1,19.09,26Zm0-15.86a.65.65,0,0,0-.46.19.68.68,0,0,0,0,.95c.06.05,1.89,1.94,1.89,6.28,0,3.52-1.42,4.9-1.7,5.14l-.09.07a.69.69,0,0,0-.29.43.65.65,0,0,0,.1.49.67.67,0,0,0,.94.19c.23-.15,2.38-1.77,2.38-6.32,0-4.89-2.19-7.14-2.29-7.23A.62.62,0,0,0,19.1,10.14Z"/><path d="M26.2,29.13A2.66,2.66,0,0,1,24,27.93a2.68,2.68,0,0,1,.74-3.69h0s1.95-1.6,1.95-6.43c0-5.52-2.14-8-2.39-8.29a2.67,2.67,0,0,1,3.82-3.74c.16.16,3.91,4,3.91,12,0,7.51-3.58,10.37-4.3,10.86A2.7,2.7,0,0,1,26.2,29.13ZM26.2,7a.65.65,0,0,0-.46.19.67.67,0,0,0,0,1c.51.56,2.93,3.53,2.93,9.67s-2.69,8-2.81,8.07a.73.73,0,0,0-.31.45.65.65,0,0,0,.1.49.67.67,0,0,0,.94.19c.33-.23,3.42-2.55,3.42-9.2,0-7.2-3.19-10.48-3.33-10.61A.67.67,0,0,0,26.2,7Z"/></g></svg>