<?xml version="1.0" encoding="UTF-8" standalone="no"?>
<svg
   width="48pt"
   height="48pt"
   viewBox="0 0 16.933334 16.933333"
   version="1.1"
   id="svg979"
   inkscape:version="1.1 (c68e22c387, 2021-05-23)"
   sodipodi:docname="16 - Forest.svg"
   inkscape:export-filename="C:\Users\RainBoyz\Desktop\ECOLOGY HABIB\EXPANDED ICON\Forest.png"
   inkscape:export-xdpi="768"
   inkscape:export-ydpi="768"
   xmlns:inkscape="http://www.inkscape.org/namespaces/inkscape"
   xmlns:sodipodi="http://sodipodi.sourceforge.net/DTD/sodipodi-0.dtd"
   xmlns="http://www.w3.org/2000/svg"
   xmlns:svg="http://www.w3.org/2000/svg"
   xmlns:rdf="http://www.w3.org/1999/02/22-rdf-syntax-ns#"
   xmlns:cc="http://creativecommons.org/ns#"
   xmlns:dc="http://purl.org/dc/elements/1.1/">
  <defs
     id="defs973" />
  <sodipodi:namedview
     id="base"
     pagecolor="#ffffff"
     bordercolor="#666666"
     borderopacity="1.0"
     inkscape:pageopacity="0.0"
     inkscape:pageshadow="2"
     inkscape:zoom="1.3589708"
     inkscape:cx="32.009517"
     inkscape:cy="32.377442"
     inkscape:document-units="pt"
     inkscape:current-layer="layer1"
     showgrid="false"
     units="pt"
     inkscape:window-width="1366"
     inkscape:window-height="716"
     inkscape:window-x="-8"
     inkscape:window-y="-8"
     inkscape:window-maximized="1"
     inkscape:document-rotation="0"
     inkscape:snap-bbox="true"
     inkscape:bbox-nodes="true"
     inkscape:snap-nodes="false"
     inkscape:pagecheckerboard="0">
    <inkscape:grid
       type="xygrid"
       id="grid1526" />
    <sodipodi:guide
       position="0.97013909,15.963209"
       orientation="56.666615,0"
       id="guide1528"
       inkscape:locked="false" />
    <sodipodi:guide
       position="0.97013909,0.97016731"
       orientation="0,56.666667"
       id="guide1530"
       inkscape:locked="false" />
    <sodipodi:guide
       position="15.963195,0.97016731"
       orientation="-56.666615,0"
       id="guide1532"
       inkscape:locked="false" />
    <sodipodi:guide
       position="15.963195,15.963209"
       orientation="0,-56.666667"
       id="guide1534"
       inkscape:locked="false" />
  </sodipodi:namedview>
  <metadata
     id="metadata976">
    <rdf:RDF>
      <cc:Work
         rdf:about="">
        <dc:format>image/svg+xml</dc:format>
        <dc:type
           rdf:resource="http://purl.org/dc/dcmitype/StillImage" />
        <dc:title />
      </cc:Work>
    </rdf:RDF>
  </metadata>
  <g
     inkscape:label="Layer 1"
     inkscape:groupmode="layer"
     id="layer1"
     transform="translate(0,-280.06668)">
    <path
       id="path2117"
       style="color:#000000;font-style:normal;font-variant:normal;font-weight:normal;font-stretch:normal;font-size:medium;line-height:normal;font-family:sans-serif;font-variant-ligatures:normal;font-variant-position:normal;font-variant-caps:normal;font-variant-numeric:normal;font-variant-alternates:normal;font-variant-east-asian:normal;font-feature-settings:normal;font-variation-settings:normal;text-indent:0;text-align:start;text-decoration:none;text-decoration-line:none;text-decoration-style:solid;text-decoration-color:#000000;letter-spacing:normal;word-spacing:normal;text-transform:none;writing-mode:lr-tb;direction:ltr;text-orientation:mixed;dominant-baseline:auto;baseline-shift:baseline;text-anchor:start;white-space:normal;shape-padding:0;shape-margin:0;inline-size:0;clip-rule:nonzero;display:inline;overflow:visible;visibility:visible;opacity:1;isolation:auto;mix-blend-mode:normal;color-interpolation:sRGB;color-interpolation-filters:linearRGB;solid-color:#000000;solid-opacity:1;vector-effect:none;fill:#000000;fill-opacity:1;fill-rule:nonzero;stroke:none;stroke-width:0.640815;stroke-linecap:round;stroke-linejoin:round;stroke-miterlimit:4;stroke-dasharray:none;stroke-dashoffset:0;stroke-opacity:1;color-rendering:auto;image-rendering:auto;shape-rendering:auto;text-rendering:auto;enable-background:accumulate;stop-color:#000000;stop-opacity:1"
       d="m 7.7814247,281.0401 c -0.285313,-0.0185 -0.5585561,0.042 -0.791633,0.17146 -0.3292216,0.18291 -0.425789,0.58695 -0.5419367,0.9606 -0.5254868,-0.34927 -1.1361636,-0.46489 -1.6201835,-0.20088 -0.5295849,0.28887 -0.7458725,0.98437 -0.5200368,1.78289 -0.3713262,0.24646 -0.7102785,0.53566 -0.8448238,0.93431 -0.110419,0.32716 -0.1205526,0.68857 -0.03254,1.05447 -0.5778575,0.0464 -1.0921396,0.38773 -1.3723677,0.87548 -0.3388722,0.58982 -0.2575625,1.40313 0.3216567,2.09579 -0.2487801,0.67537 -0.113719,1.33304 0.307892,1.7078 0.371762,0.33045 0.9083862,0.37388 1.4168017,0.20588 0.1025949,0.47581 0.2196391,0.93033 0.4468173,1.19902 0.2889432,0.34177 0.6886736,0.50405 1.0738639,0.47748 0.6190906,-0.0427 1.1117709,-0.54374 1.4449591,-1.18462 0.02874,0.0355 0.051101,0.0764 0.075722,0.11577 0.062861,1.1402 0.039029,2.27807 -0.097,3.3042 -0.059945,0.0974 -0.2111707,0.23888 -0.3047616,0.33105 -0.1429176,0.14038 -0.317437,0.29894 -0.4267951,0.51816 H 5.9040344 c -0.1769544,-6.4e-4 -0.3209646,0.14219 -0.3216566,0.31915 -6.409e-4,0.17793 0.1437218,0.32236 0.3216566,0.32165 1.7080807,2.3e-4 3.4191637,0 5.1252646,0 0.177934,6.5e-4 0.322355,-0.14372 0.321656,-0.32165 -6.41e-4,-0.17696 -0.144702,-0.31984 -0.321656,-0.31915 h -0.413027 c -0.109355,-0.21922 -0.283878,-0.37778 -0.426792,-0.51816 -0.101063,-0.0773 -0.2692898,-0.23246 -0.3047621,-0.33105 -0.1644104,-1.13968 -0.1399506,-2.125 -0.099506,-3.29794 0.025472,-0.0406 0.048513,-0.0829 0.078224,-0.11952 0.3332911,0.63988 0.8264711,1.13946 1.4449621,1.18213 0.385191,0.0265 0.78742,-0.13572 1.076366,-0.47749 0.227146,-0.26865 0.341718,-0.72331 0.444315,-1.19902 0.50842,0.16799 1.045037,0.12456 1.416803,-0.20589 0.42161,-0.37476 0.556672,-1.03243 0.307891,-1.7078 0.579219,-0.69266 0.66053,-1.50596 0.321657,-2.09578 -0.280128,-0.48759 -0.794136,-0.82892 -1.371743,-0.87549 0.0887,-0.3659 0.07913,-0.7273 -0.0313,-1.05446 -0.134405,-0.39822 -0.473466,-0.68791 -0.844199,-0.93431 0.225749,-0.79844 0.007,-1.49406 -0.522539,-1.7829 -0.484683,-0.26437 -1.094261,-0.14721 -1.620184,0.20338 -0.115876,-0.37458 -0.212103,-0.77985 -0.5419396,-0.9631 -0.4174841,-0.23192 -0.9631599,-0.24023 -1.476875,0.0294 -0.2269187,-0.11904 -0.4595023,-0.18616 -0.6852451,-0.20088 z m 0.8635997,0.83863 c 0.39858,-0.26571 0.7339918,-0.24792 0.9887571,-0.10644 0.2547653,0.14154 0.3354246,0.44598 0.4355515,0.79977 1.09e-4,0.28495 0.344211,0.42802 0.54632,0.22716 0.392505,-0.39252 0.882507,-0.42878 1.182126,-0.26534 0.299619,0.16342 0.496016,0.49968 0.215275,1.20153 -0.06149,0.15446 0.0054,0.33029 0.153946,0.40489 0.363803,0.18539 0.594762,0.4489 0.697761,0.75408 0.103006,0.30517 0.08449,0.66402 -0.118275,1.06949 -0.141569,0.27351 -0.361477,0.56737 -0.662093,0.86797 -0.125513,0.12519 -0.125513,0.32852 0,0.45371 0.125193,0.12551 0.328511,0.12551 0.453703,0 0.295329,-0.29532 0.52692,-0.59544 0.70089,-0.89677 0.450173,-0.0579 0.867276,0.17898 1.080121,0.54945 0.232229,0.40419 0.246717,0.93603 -0.311644,1.4944 -0.09819,0.098 -0.122174,0.248 -0.05945,0.37172 0.26787,0.53573 0.129301,0.90929 -0.127664,1.1377 -0.256959,0.22841 -0.645629,0.29737 -1.010031,0.0545 -0.198284,-0.13339 -0.467545,-0.0109 -0.496881,0.22654 -0.07501,0.60004 -0.242013,0.98131 -0.418657,1.19025 -0.176647,0.20894 -0.345767,0.26632 -0.541312,0.25282 -0.391092,-0.027 -0.927799,-0.47558 -1.137698,-1.17524 -0.09426,-0.31012 -0.536698,-0.30026 -0.6170337,0.0138 -0.056366,0.22546 -0.2064961,0.39582 -0.4186568,0.52254 -0.2121575,0.12672 -0.4825876,0.19651 -0.7121528,0.19651 -0.2295685,0 -0.502501,-0.0698 -0.7146585,-0.19651 -0.2121608,-0.12672 -0.361666,-0.29708 -0.418032,-0.52254 -0.079493,-0.31551 -0.5241924,-0.32543 -0.6176615,-0.0138 -0.2098955,0.69966 -0.7465999,1.14827 -1.1376952,1.17524 -0.1955445,0.0134 -0.3646682,-0.0438 -0.541312,-0.25282 -0.1766469,-0.20894 -0.3436494,-0.59021 -0.4186567,-1.19025 -0.02935,-0.23717 -0.298597,-0.35993 -0.496881,-0.22654 -0.3644022,0.24292 -0.753072,0.17397 -1.0100353,-0.0545 -0.2569601,-0.22841 -0.3955265,-0.60197 -0.1276598,-1.1377 0.062723,-0.12372 0.038731,-0.27375 -0.059451,-0.37172 -0.5583607,-0.55837 -0.5438718,-1.09021 -0.3116472,-1.4944 0.2128497,-0.37047 0.6299492,-0.60737 1.0801243,-0.54945 0.1739715,0.30133 0.4055618,0.60145 0.7008907,0.89677 0.1251926,0.12551 0.328507,0.12551 0.4536996,0 0.125513,-0.12519 0.125513,-0.32852 0,-0.45371 -0.3010065,-0.301 -0.5205366,-0.59416 -0.6620893,-0.86797 v -0.002 C 3.985345,285.55751 3.965813,285.1994 4.0685871,284.8949 c 0.1029981,-0.30518 0.3339603,-0.56869 0.6977602,-0.75408 0.1485792,-0.0746 0.2154322,-0.25044 0.153946,-0.4049 -0.2807407,-0.70185 -0.084344,-1.03811 0.215272,-1.20153 0.2996191,-0.16343 0.7896242,-0.12718 1.1821293,0.26534 0.2021096,0.20087 0.5462108,0.0578 0.5463197,-0.22716 0.090114,-0.35379 0.1832889,-0.65823 0.4380543,-0.79977 0.1273842,-0.0707 0.2737782,-0.11056 0.4386821,-0.0995 v -10e-6 h -3.1e-6 c 0.164907,0.0109 0.3482825,0.073 0.5475724,0.20588 0.039372,0.0262 0.084036,0.0432 0.1595884,0.0494 0.075552,0.006 0.1414149,-0.0124 0.1971177,-0.0493 z m -0.8391943,9.87059 c 0.2185721,0.0746 0.4443405,0.11517 0.6620924,0.11517 0.2178448,0 0.44287,-0.0406 0.6608398,-0.11517 -0.04445,0.99966 0.00224,1.97315 0.1220205,2.87553 0.024831,0.18576 0.1186502,0.30816 0.2083897,0.41428 0.117054,0.12692 0.229059,0.24081 0.3354245,0.34982 H 7.1387233 c 0.1092904,-0.11856 0.2362297,-0.2464 0.3360525,-0.34982 0.089737,-0.10608 0.1829397,-0.22852 0.2077616,-0.41428 0.1299412,-0.99858 0.1597935,-1.87857 0.1232927,-2.87553 z"
       sodipodi:nodetypes="sscscscscscssccccccsccsccccccsscscscscscscsscsccsccscccccsccsccscccsssccssccsccsccccccsccsccssccssccccccccssc" />
  </g>
</svg>
